# xmcd
#
# Track frame offsets:
#   150
#   19590
#   38023
#   54871
#   72943
#   88562
#   106777
#   123182
#   138102
#   171652
#   192957
#   211642
#   229044
#   252459
#   276765
#   299292
#   322299
#
# Disc length: 4528 seconds
#
# Revision: 0
# Processed by: cddbd v1.5.1PL2 Copyright (c) Steve Scherf et al.
# Submitted via: GXTranscoder 2.0.1939
#
DISCID=ed11ae11
DTITLE=50 Cent - Hip Hop Shit 8
DYEAR=2005
DGENRE=RAP US
TTITLE0=Outta Control
TTITLE1=Bonanza (Belly Dancer)
TTITLE2=Take It To The Floor
TTITLE3=Let Me Hold You
TTITLE4=1, 2 Step
TTITLE5=Poppin' Them Thangs
TTITLE6=Life Ain't A Game
TTITLE7=Never Really Was - Remix
TTITLE8=Clubbed To Death (Kurayamino Mix)
TTITLE9=If I Ruled The World (Imagine That)
TTITLE10=Luven Me
TTITLE11=Paper'd Up
TTITLE12=I'll Be Missing You
TTITLE13=I Believe I Can Fly
TTITLE14=Beautiful
TTITLE15=Paper'd Up
TTITLE16=Poppin' Them Thangs
EXTD=
EXTT0=
EXTT1=
EXTT2=
EXTT3=
EXTT4=
EXTT5=
EXTT6=
EXTT7=
EXTT8=
EXTT9=
EXTT10=
EXTT11=
EXTT12=
EXTT13=
EXTT14=
EXTT15=
EXTT16=
PLAYORDER=
